<?xml version="1.0" encoding="utf-8"?>
<!-- Generator: Adobe Illustrator 19.2.0, SVG Export Plug-In . SVG Version: 6.00 Build 0)  -->
<!DOCTYPE svg PUBLIC "-//W3C//DTD SVG 1.1//EN" "http://www.w3.org/Graphics/SVG/1.1/DTD/svg11.dtd">
<svg version="1.1" id="Layer_1" xmlns="http://www.w3.org/2000/svg" xmlns:xlink="http://www.w3.org/1999/xlink" x="0px" y="0px"
	 viewBox="0 0 96.8 40.8" style="enable-background:new 0 0 96.8 40.8;" xml:space="preserve">
<style type="text/css">
	.st0{fill:#FFFFFF;}
</style>
<g>
	<polyline class="st0" points="22.2,26.2 16.6,9.7 9.8,9.7 9.8,10.1 13.2,10.1 13.2,30.6 9.8,30.6 9.8,31 16.9,31 16.9,30.6 
		13.6,30.6 13.6,10.5 13.7,10.5 20.7,30.7 	"/>
	<g>
		<path class="st0" d="M28,9.8l6.5,0v0.4h-3.3v20.5h3.3v0.4h-9.6v-0.4h3.3V10.2"/>
		<path class="st0" d="M34.7,24.6h0.3c0.2,1.1,0.5,2,0.9,2.7c0.3,0.7,0.7,1.3,1.2,1.8c0.4,0.5,0.9,0.8,1.3,1.1
			c0.5,0.3,0.9,0.4,1.4,0.6c0.5,0.1,0.9,0.2,1.3,0.2c0.4,0,0.8,0,1.2,0c1.1,0,1.9-0.2,2.6-0.5c0.7-0.3,1.2-0.7,1.6-1.2
			c0.4-0.5,0.7-1,0.8-1.6c0.2-0.6,0.2-1.1,0.2-1.6c0-0.7-0.1-1.3-0.4-1.8c-0.3-0.5-0.6-0.9-1-1.3c-0.4-0.3-0.8-0.6-1.3-0.9
			c-0.5-0.2-0.9-0.4-1.3-0.5l-3.4-1c-1.6-0.5-2.8-1.2-3.7-2c-0.8-0.8-1.2-1.9-1.2-3.3c0-0.9,0.2-1.7,0.5-2.5c0.3-0.8,0.8-1.4,1.3-2
			c0.6-0.6,1.3-1,2.1-1.3c0.8-0.3,1.7-0.5,2.7-0.5c0.7,0,1.3,0.1,1.8,0.2c0.5,0.1,0.9,0.3,1.2,0.4c0.3,0.1,0.6,0.3,0.9,0.4
			c0.3,0.1,0.5,0.2,0.8,0.2c0.3,0,0.4,0,0.5-0.1c0.1-0.1,0.2-0.2,0.4-0.5h0.4v5.4h-0.4c-0.1-0.7-0.3-1.4-0.6-2.1
			c-0.3-0.7-0.7-1.3-1.1-1.8c-0.5-0.5-1-0.9-1.7-1.2c-0.6-0.3-1.4-0.5-2.3-0.5c-0.5,0-1,0.1-1.6,0.2c-0.6,0.1-1.1,0.4-1.6,0.7
			c-0.5,0.3-0.9,0.7-1.2,1.3c-0.3,0.5-0.5,1.2-0.5,2c0,0.6,0.1,1.2,0.4,1.6c0.3,0.4,0.6,0.8,1,1.1c0.4,0.3,0.9,0.6,1.4,0.8
			c0.5,0.2,1,0.4,1.5,0.6l3.6,1.1c0.4,0.1,0.9,0.3,1.4,0.5c0.6,0.2,1.1,0.5,1.7,0.9c0.5,0.4,1,0.9,1.4,1.6c0.4,0.7,0.6,1.5,0.6,2.5
			c0,0.9-0.2,1.8-0.5,2.7c-0.3,0.8-0.9,1.6-1.5,2.2c-0.7,0.6-1.5,1.2-2.4,1.6c-0.9,0.4-2,0.6-3.2,0.6c-0.4,0-0.8,0-1.1,0
			c-0.3,0-0.6,0-0.9-0.1c-0.3,0-0.6-0.1-0.8-0.1c-0.3-0.1-0.6-0.1-0.9-0.2c-0.4-0.1-0.8-0.3-1.3-0.4c-0.5-0.2-0.9-0.2-1.2-0.2
			c-0.3,0-0.5,0.1-0.6,0.2c-0.1,0.1-0.2,0.3-0.3,0.5h-0.4V24.6z"/>
		<path class="st0" d="M54.9,30.7h3.3V10.2h-1.7c-0.4,0-0.8,0-1.3,0.1c-0.5,0.1-1,0.3-1.5,0.6c-0.5,0.3-1,0.8-1.5,1.5
			c-0.5,0.7-0.9,1.6-1.2,2.9h-0.3V9.8h18.2v5.5h-0.3c-0.3-1.2-0.7-2.2-1.2-2.9c-0.5-0.7-1-1.2-1.5-1.5c-0.5-0.3-1-0.5-1.5-0.6
			c-0.5-0.1-0.9-0.1-1.3-0.1h-1.7v20.5h3.3v0.4h-9.6V30.7z"/>
		<path class="st0" d="M64.7,30.7h2.6l8.1-21.4h0.7l8.1,21.4h2.7v0.4h-9.2v-0.4H81l-3.1-8.3h-6.9l-3.1,8.3h3.3v0.4h-6.4V30.7z
			 M74.4,13.2l-3.3,8.7h6.6L74.4,13.2z"/>
	</g>
</g>
</svg>
